<?xml version="1.0" encoding="UTF-8"?>
<svg viewBox="0 0 406.25 406.25" xmlns="http://www.w3.org/2000/svg" xmlns:xlink="http://www.w3.org/1999/xlink">
 <defs>
  <filter id="g">
   <feGaussianBlur stdDeviation="1.5047"/>
  </filter>
  <linearGradient id="f">
   <stop stop-color="#8088ff" offset="0"/>
   <stop stop-color="#0010ff" stop-opacity="0" offset="1"/>
  </linearGradient>
  <linearGradient id="h" x1="-231.91" x2="-3.4194" gradientUnits="userSpaceOnUse">
   <stop stop-color="#fff400" offset="0"/>
   <stop stop-color="#fff" offset=".3472"/>
   <stop stop-color="#ffc200" offset="1"/>
  </linearGradient>
  <linearGradient id="b" x1="-124.82" x2="-122.11" y1="-15.057" y2="-12.433" gradientUnits="userSpaceOnUse">
   <stop stop-color="#fff" offset="0"/>
   <stop stop-color="#f00" stop-opacity="0" offset="1"/>
  </linearGradient>
  <linearGradient id="e" x1="-107.95" x2="-134.57" y1="131.42" y2="114.85" gradientUnits="userSpaceOnUse">
   <stop stop-color="#000880" offset="0"/>
   <stop stop-color="#0010ff" stop-opacity="0" offset="1"/>
  </linearGradient>
  <linearGradient id="d" x1="-127.84" x2="-101.7" y1="109.05" y2="123.41" gradientUnits="userSpaceOnUse" xlink:href="#f"/>
  <linearGradient id="c" x1="-122.04" x2="-101.7" y1="112.64" y2="123.41" gradientUnits="userSpaceOnUse" xlink:href="#f"/>
  <radialGradient id="a" cx="-113.8" cy="-2.6842" r="12.706" gradientTransform="matrix(1 0 0 1.4348 0 1.1672)" gradientUnits="userSpaceOnUse">
   <stop stop-color="#7e0000" offset="0"/>
   <stop stop-color="#f00" offset="1"/>
  </radialGradient>
 </defs>
 <path d="m240.01214,11.79071c-33.8671,24.19534-22.5685,37.2821-14.7826,51.23106l-1.0488,6.62103c-.52-.0415-1.0438-.0971-1.5734-.13109l-.065-7.60435-1.2455,7.5388h-.098l.3278-9.60378-1.1472,9.571c-.614-.0264-1.2419-.049-1.8684-.0656l-.033-8.19435-.6883,8.16157h-.295l-.033-10.22655-.8522,10.22655c-.5039-.005-.996-.0339-1.5078-.0327l-.6883-8.39101-.6555,7.40769-.3606-9.47267-.4916,10.48877c-.6613.0135-1.3187.0416-1.9667.0656l-.6228-8.32545-.098,8.35823h-.1311l-.7866-10.42321-.1313,10.45599c-.5731.0302-1.1419.0597-1.7044.0983l-1.2128-7.86658-.098,6.12938-.7539-6.65381c7.2996-12.62914 13.8811-25.4289-16.9132-47.42889 30.9706,21.2201 17.9955,39.05977 8.4566,57.16377-.499.0936-.9861.19345-1.4749.295l-1.1473-4.98217 .6884,5.04772c-.033.007-.065.0256-.098.0327l-1.6389-7.14548 .9833,7.27659c-.8984.20203-1.7917.42646-2.6549.65554l-1.1472-3.4744 .4261,3.21218-1.4422-5.27716 1.0161,5.86716c-1.0647.30265-2.1035.60666-3.1139.95054l-.6227-1.96664 .4261,2.0322c-.056.0192-.1082.0462-.1639.0656l-1.3111-4.12995 .9177,4.29384c-1.1665.41453-2.2821.87501-3.376,1.34387l-.1639-.36055 .065.39333-.1639.0656-.9177-2.52386 .6555,2.62219c-1.3262.58469-2.6148,1.2056-3.8349,1.86831l-.3615-.88494 .2622.91777c-3.6878,2.01288-6.8694,4.41549-9.6365,7.07992-1.0555-.101-2.1303-.16387-3.2122-.16387-18.3638,0-33.2363,14.87244-33.2363,33.23627 0,14.88476 9.787,27.4884 23.2719,31.72852l1.4423.88499c.2141,1.00644.4532,2.00646.6883,3.01552l-8.9155-1.90109 4.8839,2.39275-3.835-.32778 9.4071,5.96549c.021.0765.045.15296.065.22944l-11.1771-1.17998 7.2438,2.72052-6.2277-.65555 11.4393,4.29384-1.3111.7211-11.5704.0983 5.5721,1.44221-4.5233.62277 3.8678,1.50776c-48.3805,26.75216-91.076,52.87508-111.47591,114.13088-19.4729,48.79679 45.0645,66.19497 73.35581,23.86194 12.8163-16.75115 27.7286-42.08637 41.2667-66.01367-.068.69353-.147,1.39554-.1967,2.09776v.13116c-.047.68135-.068,1.3759-.098,2.06498-.026.59099-.052,1.17365-.065,1.76998 0,.14361-.03.28212-.033.42612l.033.0327c-.1937,10.33918 1.3661,21.43039 4.1627,32.61349 .093.37156.1994.74287.295,1.11444 .6429,2.50061 1.3424,5.008 2.0978,7.50602 .2306.75687.4809,1.50593.7211,2.26164 .3662,1.16057.7267,2.31787 1.1144,3.47441 .014.0458.05.0852.065.13116 .2097.62411.4071,1.24577.6227,1.86832 .3306.95082.6733,1.90443 1.0161,2.85164 5.0459,13.93518 11.455,27.36924 18.1587,38.87399 .059.10145.1378.19388.1967.29498 .7656,1.30931 1.5241,2.61068 2.2944,3.86774 .028.0456.07.0855.098.13108 1.9808,3.22679 3.9623,6.28084 5.9327,9.11212 .4039.5799.8112,1.14578 1.2127,1.70442h-.4916l2.4911,2.72051c1.3395,1.78491 2.6701,3.43273 3.966,4.98218 .1867.22343.3717.46999.5572.68832 .029.0342.069.0642.098.0983 .31.36376.6112.7.9178,1.04888 .3167.36008.6376.73764.9505,1.08163l.098.0983c.5071.55561.9794,1.09413 1.475,1.60609l.1967.19667 .033.0328 .6228.62277c6.6906,8.85499 11.6383,19.33316 10.7838,35.10459 .9608-10.53481 1.6726-20.87139 5.4738-30.31908 .3628-.2823.7317-.5866 1.1144-.9178 .1719-.14881.3478-.3326.5244-.49164 .2315-.20862.4833-.39766.7211-.62276l.1313-.13108c2.7999-2.67388 6.0289-6.47743 9.4727-11.14431 .2434-.32998.5084-.67709.7538-1.01609 .4005-.55247.8073-1.12953 1.2128-1.70442l.6556-.95055c9.7928-14.0878 20.8457-34.40767 28.7785-55.88545 .048-.1291.084-.26412.1311-.39334 1.2068-3.28519 2.3651-6.57945 3.4088-9.89877 .034-.10958.064-.21815.098-.32776 .5004-1.60061.9854-3.21629 1.4422-4.81829 .3445-1.21142.6649-2.42802.9833-3.63828 3.4224-12.99101 5.2694-25.84168 4.5889-37.49735-.045-.76677-.098-1.53833-.1639-2.29442-.066-.74867-.141-1.49137-.2295-2.22886-.061-.51443-.1243-1.03178-.1966-1.54054 14.2997,25.41813 30.4172,53.23197 44.1839,71.22528 28.2912,42.33303 92.8287,24.93485 73.3558-23.86194-20.8416-62.58297-64.9482-88.49048-114.6222-115.86798l.4588-.0983-.6555-.0327-5.1133-2.81885 6.4572-2.22886-9.0466.68832 7.9977-2.7533-9.1121.68833 9.5382-5.73605-6.2605.36056 5.2444-2.42553-7.4732,1.40943c.1962-.75601.3719-1.5068.5572-2.26164l3.081-1.80276c15.7984-2.57741 27.8608-16.28312 27.8608-32.81017 0-18.36384-14.9052-33.23628-33.269-33.23628-2.2157,0-4.3628.24217-6.4572.65555-4.2752-4.45796-9.7584-8.10051-16.6181-10.7182l.1312-.52444-.1966.49166c-.8484-.32247-1.6984-.62706-2.5894-.91777l.1966-.85221-.2622.81943c-.4267-.13863-.8745-.2621-1.3111-.39333l.5572-2.4583-.7866,2.39275c-.7496-.22222-1.5157-.45539-2.2944-.65555l.3605-2.58941-.8194,2.49108-.9834-.22944 .7867-4.32662-1.18,4.22829c-.7174-.16361-1.4547-.31357-2.1961-.45889l.59-4.1955-.9833,4.12995c-.3044-.058-.6093-.10896-.9178-.16389l.8523-6.03104-1.4095,5.93271-.6883-.13111c-18.8416-22.46645-20.6918-42.6673 8.686-58.7044zm-24.5502,389.59211c-.1772,1.94158-.3407,3.88328-.5573,5.83437 .2712-2.02874.4558-3.9611.5573-5.83437zm-10.1938-339.99992 .1967,8.32546c-.7316.0647-1.4502.15012-2.1633.22944l-.59-3.99884c.8261-1.52313 1.6821-3.04484 2.5566-4.55606zm20.1253,1.93387c.2914.52607.6073,1.04388.885,1.57331l-.7539,4.85106c-.183-.0172-.3729-.0165-.5572-.0327zm1.0489,1.86831c.6702,1.29425 1.2732,2.60443 1.8028,3.93328l-.1639.88499c-.6516-.0796-1.2987-.12976-1.9667-.19666zm-23.9931,1.24554 .1967,3.57273h-.065l-.4589-3.01552c.099-.19015.2266-.36756.3277-.55721zm-.8194,1.50776 .1311,2.16331c-.4001.0513-.7859.10794-1.18.16388 .3322-.77806.6677-1.56117 1.0488-2.32719z" opacity=".4615"/>
 <path d="m111.57 294.75c-26.973 40.36-88.482 23.766-69.916-22.757 22.79-68.433 74.723-90.855 130.42-122.17l10.756 26.35c-13.532 20.368-46.524 86.244-71.261 118.58z" fill-opacity=".3099" stroke="#000" stroke-width="2.3375"/>
 <path d="m305.78 294.75c26.973 40.36 88.482 23.766 69.916-22.757-22.79-68.433-74.723-90.855-130.42-122.17l-10.756 26.35c13.532 20.368 46.524 86.244 71.261 118.58z" fill-opacity=".3099" stroke="#000" stroke-width="2.3375"/>
 <path d="m186.32 338.91c11.68 12.797 24.216 24.809 20.637 51.593 2.143-19.312 1.1737-38.355 19.654-52.576z" stroke="#000" stroke-width=".60338"/>
 <path d="m208.13 186.92c116.98-0.44477 17.973 171.31 0 171.31-23.356 0-116.98-170.87 0-171.31z" fill="#fff302" stroke="#000" stroke-width="2.3273"/>
 <path transform="matrix(.42824 0 0 .75453 -2.1231 149.73)" d="m581.91 129.71-31.295-29.124 24.433 35.08-29.404-31.032 22.182 36.545-27.398-32.817 19.844 37.866-25.283-34.472 17.427 39.037-23.069-35.992 14.941 40.054-20.763-37.369 12.397 40.913-18.376-38.599 9.8035 41.611-15.916-39.677 7.1714 42.144-13.393-40.598 4.511 42.512-10.818-41.359 1.8327 42.711-8.1995-41.957-0.85272 42.742-5.5488-42.389-3.5348 42.604-2.8763-42.653-6.203 42.298-0.19235-42.75-8.8466 41.825 2.4923-42.678-11.455 41.187 5.1671-42.437-14.019 40.386 7.8216-42.029-16.527 39.426 10.445-41.455-18.97 38.311 13.027-40.717-21.338 37.044 15.558-39.819-23.622 35.631 18.028-38.763-25.813 34.078 20.426-37.555-27.902 32.39 22.744-36.198-29.88 30.574 24.972-34.698-31.741 28.637 27.102-33.062-33.477 26.588 29.124-31.295-35.08 24.433 31.032-29.404-36.545 22.182 32.817-27.398-37.866 19.844 34.472-25.283-39.037 17.427 35.992-23.069-40.054 14.941 37.369-20.763-40.913 12.397 38.599-18.376-41.611 9.8035 39.677-15.916-42.144 7.1714 40.598-13.393-42.512 4.511 41.359-10.818-42.711 1.8327 41.957-8.1995-42.742-0.85272 42.389-5.5488-42.604-3.5348 42.653-2.8763-42.298-6.203 42.75-0.19235-41.825-8.8466 42.678 2.4923-41.187-11.455 42.437 5.1671-40.386-14.019 42.029 7.8216-39.426-16.527 41.455 10.445-38.311-18.97 40.717 13.027-37.044-21.338 39.819 15.558-35.631-23.622 38.763 18.028-34.078-25.813 37.555 20.426-32.39-27.902 36.198 22.744-30.574-29.88 34.698 24.972-28.637-31.741 33.062 27.102-26.588-33.477 31.295 29.124-24.433-35.08 29.404 31.032-22.182-36.545 27.398 32.817-19.844-37.866 25.283 34.472-17.427-39.037 23.069 35.992-14.941-40.054 20.763 37.369-12.397-40.913 18.376 38.599-9.8035-41.611 15.916 39.677-7.1714-42.144 13.393 40.598-4.511-42.512 10.818 41.359-1.8327-42.711 8.1995 41.957 0.85273-42.742 5.5488 42.389 3.5348-42.604 2.8763 42.653 6.203-42.298 0.19235 42.75 8.8466-41.825-2.4923 42.678 11.455-41.187-5.1671 42.437 14.019-40.386-7.8216 42.029 16.527-39.426-10.445 41.455 18.97-38.311-13.027 40.717 21.338-37.044-15.558 39.819 23.622-35.631-18.028 38.763 25.813-34.078-20.426 37.555 27.902-32.39-22.744 36.198 29.88-30.574-24.972 34.698 31.741-28.637-27.102 33.062 33.477-26.588-29.124 31.295 35.08-24.433-31.032 29.404 36.545-22.182-32.817 27.398 37.866-19.844-34.472 25.283 39.037-17.427-35.992 23.069 40.054-14.941-37.369 20.763 40.913-12.397-38.599 18.376 41.611-9.8035-39.677 15.916 42.144-7.1714-40.598 13.393 42.512-4.511-41.359 10.818 42.711-1.8327-41.957 8.1995 42.742 0.85272-42.389 5.5488 42.604 3.5348-42.653 2.8763 42.298 6.203-42.75 0.19236 41.825 8.8466-42.678-2.4923 41.187 11.455-42.437-5.1671 40.386 14.019-42.029-7.8216 39.426 16.527-41.455-10.445 38.311 18.97-40.717-13.027 37.044 21.338-39.819-15.558 35.631 23.622-38.763-18.028 34.078 25.813-37.555-20.426 32.39 27.902-36.198-22.744 30.574 29.88-34.698-24.972 28.637 31.741-33.062-27.102z" filter="url(#g)"/>
 <path transform="matrix(.42824 0 0 .75453 -1.1404 151.7)" d="m581.91 129.71-33.749-27.061 19.665 38.53-30.091-31.077 14.681 40.691-25.959-34.604 9.4649 42.21-21.417-37.584 4.0999 43.063-16.538-39.972-1.3297 43.238-11.397-41.73-6.7384 42.73-6.0775-42.829-12.041 41.549-0.66162-43.253-17.153 39.712 4.7646-42.995-21.995 37.249 10.116-42.059-26.49 34.198 15.307-40.459-30.568 30.609 20.258-38.222-34.163 26.536 24.888-35.381-37.219 22.045 29.127-31.983-39.689 17.207 32.905-28.08-41.532 12.097 36.165-23.735-42.721 6.7958 38.855-19.015-43.236 1.3878 40.932-13.995-43.069-4.042 42.363-8.7547-42.223-9.4081 43.126-3.3762-40.711-14.626 43.209 2.0556-38.557-19.613 42.611 7.4549-35.794-24.291 41.341 12.737-32.468-28.585 39.418 17.818-28.629-32.429 36.874 22.618-24.339-35.762 33.749 27.061-19.665-38.53 30.091 31.077-14.681-40.691 25.959 34.604-9.4648-42.21 21.417 37.584-4.0999-43.063 16.538 39.972 1.3297-43.238 11.397 41.73 6.7384-42.73 6.0775 42.829 12.041-41.549 0.66163 43.253 17.153-39.712-4.7646 42.995 21.995-37.249-10.116 42.059 26.49-34.198-15.307 40.459 30.568-30.609-20.258 38.222 34.163-26.536-24.888 35.381 37.219-22.045-29.127 31.983 39.689-17.207-32.905 28.08 41.532-12.097-36.165 23.735 42.721-6.7958-38.855 19.015 43.236-1.3878-40.932 13.995 43.069 4.042-42.363 8.7547 42.223 9.4081-43.126 3.3762 40.711 14.626-43.209-2.0556 38.557 19.613-42.611-7.4549 35.794 24.291-41.341-12.737 32.468 28.585-39.418-17.818 28.629 32.429-36.874-22.618z" fill="#ffc400"/>
 <path transform="matrix(.42824 0 0 .75453 -1.1404 151.7)" d="m581.91 129.71-31.295-29.124 24.433 35.08-29.404-31.032 22.182 36.545-27.398-32.817 19.844 37.866-25.283-34.472 17.427 39.037-23.069-35.992 14.941 40.054-20.763-37.369 12.397 40.913-18.376-38.599 9.8035 41.611-15.916-39.677 7.1714 42.144-13.393-40.598 4.511 42.512-10.818-41.359 1.8327 42.711-8.1995-41.957-0.85272 42.742-5.5488-42.389-3.5348 42.604-2.8763-42.653-6.203 42.298-0.19235-42.75-8.8466 41.825 2.4923-42.678-11.455 41.187 5.1671-42.437-14.019 40.386 7.8216-42.029-16.527 39.426 10.445-41.455-18.97 38.311 13.027-40.717-21.338 37.044 15.558-39.819-23.622 35.631 18.028-38.763-25.813 34.078 20.426-37.555-27.902 32.39 22.744-36.198-29.88 30.574 24.972-34.698-31.741 28.637 27.102-33.062-33.477 26.588 29.124-31.295-35.08 24.433 31.032-29.404-36.545 22.182 32.817-27.398-37.866 19.844 34.472-25.283-39.037 17.427 35.992-23.069-40.054 14.941 37.369-20.763-40.913 12.397 38.599-18.376-41.611 9.8035 39.677-15.916-42.144 7.1714 40.598-13.393-42.512 4.511 41.359-10.818-42.711 1.8327 41.957-8.1995-42.742-0.85272 42.389-5.5488-42.604-3.5348 42.653-2.8763-42.298-6.203 42.75-0.19235-41.825-8.8466 42.678 2.4923-41.187-11.455 42.437 5.1671-40.386-14.019 42.029 7.8216-39.426-16.527 41.455 10.445-38.311-18.97 40.717 13.027-37.044-21.338 39.819 15.558-35.631-23.622 38.763 18.028-34.078-25.813 37.555 20.426-32.39-27.902 36.198 22.744-30.574-29.88 34.698 24.972-28.637-31.741 33.062 27.102-26.588-33.477 31.295 29.124-24.433-35.08 29.404 31.032-22.182-36.545 27.398 32.817-19.844-37.866 25.283 34.472-17.427-39.037 23.069 35.992-14.941-40.054 20.763 37.369-12.397-40.913 18.376 38.599-9.8035-41.611 15.916 39.677-7.1714-42.144 13.393 40.598-4.511-42.512 10.818 41.359-1.8327-42.711 8.1995 41.957 0.85273-42.742 5.5488 42.389 3.5348-42.604 2.8763 42.653 6.203-42.298 0.19235 42.75 8.8466-41.825-2.4923 42.678 11.455-41.187-5.1671 42.437 14.019-40.386-7.8216 42.029 16.527-39.426-10.445 41.455 18.97-38.311-13.027 40.717 21.338-37.044-15.558 39.819 23.622-35.631-18.028 38.763 25.813-34.078-20.426 37.555 27.902-32.39-22.744 36.198 29.88-30.574-24.972 34.698 31.741-28.637-27.102 33.062 33.477-26.588-29.124 31.295 35.08-24.433-31.032 29.404 36.545-22.182-32.817 27.398 37.866-19.844-34.472 25.283 39.037-17.427-35.992 23.069 40.054-14.941-37.369 20.763 40.913-12.397-38.599 18.376 41.611-9.8035-39.677 15.916 42.144-7.1714-40.598 13.393 42.512-4.511-41.359 10.818 42.711-1.8327-41.957 8.1995 42.742 0.85272-42.389 5.5488 42.604 3.5348-42.653 2.8763 42.298 6.203-42.75 0.19236 41.825 8.8466-42.678-2.4923 41.187 11.455-42.437-5.1671 40.386 14.019-42.029-7.8216 39.426 16.527-41.455-10.445 38.311 18.97-40.717-13.027 37.044 21.338-39.819-15.558 35.631 23.622-38.763-18.028 34.078 25.813-37.555-20.426 32.39 27.902-36.198-22.744 30.574 29.88-34.698-24.972 28.637 31.741-33.062-27.102z" fill="#ffc400" filter="url(#g)"/>
 <path d="m206.94 68.331c116.98-0.44477 17.973 171.31 0 171.31-23.356 0-116.98-170.87 0-171.31z" fill="#fff302" stroke="#000" stroke-width="2.3273"/>
 <path d="m229.59 170.25c-11.204 35.741-36.107 34.966-47.25 0" fill="none" stroke="#000" stroke-width="2.0046"/>
 <path d="m144.86 91.699c0-4.3419 3.5198-7.8618 7.8618-7.8618 13.236-1.1637-12.726 18.981-7.8618 7.8618z" fill="#fff"/>
 <path d="m238.03 97.399c0-4.3419 3.5198-7.8618 7.8618-7.8618 13.236-1.1637-12.726 18.981-7.8618 7.8618z" fill="#fff"/>
 <path d="m191.44 80.844c-4.4229-27.04-58.973-67.545-92.104-48.306" fill="none" stroke="#000" stroke-linecap="round" stroke-width="3"/>
 <path d="m152.66 221.9c-1.327 5.0445-1.9857 10.451-2.093 16.103 18.305 14.191 36.622 19.54 54.927 24.739-18.867-6.06-36.05-22.282-52.834-40.842zm1.8856 47.215c1.5312 6.1271 3.4671 12.26 5.6567 18.309 14.952 3.7271 28.414 3.5557 39.39-3.0546-14.514-1.106-29.586-6.5745-45.046-15.254zm42.086 41.784-21.288 9.7107c1.5344 2.761 3.0763 5.431 4.6385 7.976l16.65-17.687zm-0.9805 22.608-10.126 3.5826c1.0388 1.4972 2.0694 2.9138 3.0924 4.2803l7.0332-7.8629zm4.9214 4.9025-9.541 6.0716c1.3486 1.6862 2.6728 3.2472 3.9597 4.6574l5.5813-10.729zm1.961 3.9409-6.1281 8.3154c0.63882 0.66001 1.2692 1.2859 1.8856 1.8667l4.2426-10.182zm4.9214 3.922-6.4487 8.5982c1.0145 0.79775 2.0045 1.4788 2.9226 1.9987l3.526-10.597z"/>
 <path d="m261.7 218.11c-17.867 20.113-36.068 38.162-56.209 44.632 19.607-5.5683 39.204-11.312 58.811-27.907-0.1772-5.9246-0.99542-11.554-2.6021-16.725zm-1.4896 48.799c-16.793 9.9487-33.137 16.264-48.836 17.46 11.779 7.0937 26.414 6.7851 42.689 2.1873 2.3976-6.4914 4.4822-13.091 6.147-19.648zm-45.876 43.991 18.403 19.553c1.7132-2.7936 3.4381-5.7303 5.1476-8.8056l-23.551-10.748zm0.9805 22.608 8.8056 9.8239c1.2315-1.6696 2.4918-3.4627 3.7712-5.355l-12.577-4.4688zm-4.9214 4.9025 6.9201 13.274c1.5294-1.6524 3.1465-3.6024 4.8459-5.7887l-11.766-7.4857zm-1.961 3.9409 5.3362 12.803c0.76248-0.65997 1.5767-1.4274 2.4135-2.2816l-7.7497-10.522zm-4.9214 3.922 3.9786 11.898c0.21711 0.0264 0.43475 0.0565 0.64109 0.0565 0.92051 0 2.0506-0.46506 3.3563-1.3199l-7.976-10.635z"/>
 <path d="m221.2 78.991c3.2275-21.831 76.491-58.409 109.29-44.79" fill="none" stroke="#000" stroke-linecap="round" stroke-width="3"/>
 <path transform="matrix(1.0244 0 0 1.0244 -335.16 -21.822)" d="m609.13 132.63a30.945 30.945 0 1 1 -61.89 0 30.945 30.945 0 1 1 61.89 0z"/>
 <path transform="matrix(1.0244 0 0 1.0244 -432.07 -21.822)" d="m609.13 132.63a30.945 30.945 0 1 1 -61.89 0 30.945 30.945 0 1 1 61.89 0z"/>
 <path transform="matrix(1.0244 0 0 1.0244 -432.07 -21.822)" d="m609.13 132.63c0 17.09-13.855 30.945-30.945 30.945s-30.945-13.855-30.945-30.945c0-3.7052 0.6512-7.2584 1.8454-10.551 0.96488-2.6605 2.2842-5.1511 3.901-7.4147 0.95803-1.3413 2.0205-2.6029 3.1755-3.7729-26.959-8.5266-18.477-12.904-19.836-15.137 0.23472 9.3575 14.793 9.4544 25.124 10.842-20.67-5.5864-24.28-13.282-24.363-15.514 1.0663 8.1418 34.511 16.793 30.296 12.54 3.4833-2.3032-25.93-9.5109-26.237-13.667 3.5326 4.837 16.962 1.9756 37.039 11.73 16.144 5.6071 30.945 13.855 30.945 30.945z"/>
 <path d="m141.12 97.399c0-4.3419 3.5198-7.8618 7.8618-7.8618 13.236-1.1637-12.726 18.981-7.8618 7.8618z" fill="#fff"/>
 <path d="m224.92 112.49c0 17.508 14.193 31.701 31.701 31.701s31.701-14.193 31.701-31.701c0-3.7958-0.66712-7.4357-1.8905-10.809-0.98846-2.7255-2.3401-5.277-3.9963-7.5959-0.98144-1.3741-2.0699-2.6665-3.2531-3.8651 27.617-8.735 18.928-13.22 20.32-15.507-0.24045 9.5861-15.155 9.6854-25.738 11.107 21.175-5.723 24.873-13.607 24.958-15.893-1.0923 8.3407-35.354 17.204-31.036 12.847-3.5684-2.3595 26.563-9.7433 26.878-14.001-3.6189 4.9552-17.376 2.0238-37.944 12.016-16.539 5.7441-31.701 14.193-31.701 31.701z"/>
 <path d="m244.98 94.085c0-4.3419 3.5198-7.8618 7.8618-7.8618 13.236-1.1637-12.726 18.981-7.8618 7.8618z" fill="#fff"/>
 <g transform="matrix(.45963 0 0 .45963 259.46 -4.0292)">
  <path d="m-230.91 57.116 41.984 133.69c49.718 20.486 99.437 14.663 149.16 0l35.355-133.69-28.312 55.795-28.312-55.795-28.312 55.795-28.312-125.4-28.312 125.4-28.312-55.795-28.312 55.795z" fill="url(#h)" stroke="#000" stroke-width="2"/>
  <path d="m-104.96-6.4131c0 7.0172-5.6886 12.706-12.706 12.706s-12.706-5.6886-12.706-12.706 5.6886-12.706 12.706-12.706 12.706 5.6886 12.706 12.706z" fill="url(#a)"/>
  <path d="m-123.18-16.335c-1.9906 0-3.4375 1.4469-3.4375 3.4375-0.0856 5.7268 9.2284-3.4538 3.4375-3.4375z" fill="url(#b)"/>
  <g transform="translate(-57.452 60.767)">
   <path d="m-104.96-6.4131c0 7.0172-5.6886 12.706-12.706 12.706s-12.706-5.6886-12.706-12.706 5.6886-12.706 12.706-12.706 12.706 5.6886 12.706 12.706z" fill="url(#a)"/>
   <path d="m-123.18-16.335c-1.9906 0-3.4375 1.4469-3.4375 3.4375-0.0856 5.7268 9.2284-3.4538 3.4375-3.4375z" fill="url(#b)"/>
  </g>
  <g transform="translate(-113.8 61.872)">
   <path d="m-104.96-6.4131c0 7.0172-5.6886 12.706-12.706 12.706s-12.706-5.6886-12.706-12.706 5.6886-12.706 12.706-12.706 12.706 5.6886 12.706 12.706z" fill="url(#a)"/>
   <path d="m-123.18-16.335c-1.9906 0-3.4375 1.4469-3.4375 3.4375-0.0856 5.7268 9.2284-3.4538 3.4375-3.4375z" fill="url(#b)"/>
  </g>
  <g transform="translate(57.452 65.186)">
   <path d="m-104.96-6.4131c0 7.0172-5.6886 12.706-12.706 12.706s-12.706-5.6886-12.706-12.706 5.6886-12.706 12.706-12.706 12.706 5.6886 12.706 12.706z" fill="url(#a)"/>
   <path d="m-123.18-16.335c-1.9906 0-3.4375 1.4469-3.4375 3.4375-0.0856 5.7268 9.2284-3.4538 3.4375-3.4375z" fill="url(#b)"/>
  </g>
  <g transform="translate(113.8 62.977)">
   <path d="m-104.96-6.4131c0 7.0172-5.6886 12.706-12.706 12.706s-12.706-5.6886-12.706-12.706 5.6886-12.706 12.706-12.706 12.706 5.6886 12.706 12.706z" fill="url(#a)"/>
   <path d="m-123.18-16.335c-1.9906 0-3.4375 1.4469-3.4375 3.4375-0.0856 5.7268 9.2284-3.4538 3.4375-3.4375z" fill="url(#b)"/>
  </g>
  <g transform="matrix(.5725 0 0 .5725 -50.383 48.048)">
   <path d="m-116.56 83.964 16.799 35.579-16.799 35.579-16.799-35.579z" fill="#0010ff"/>
   <path d="m-116.56 83.964 16.799 35.579-16.799 35.579-16.799-35.579z" fill="url(#e)"/>
   <path d="m-116.56 83.964 16.799 35.579-16.799 35.579-16.799-35.579z" fill="url(#d)"/>
   <path d="m-116.56 83.964 16.799 35.579-16.799 35.579c-17.765-51.977-0.29532-32.654 0-71.157z" fill="url(#c)"/>
  </g>
  <g transform="matrix(.5725 0 0 .5725 -106.73 48.048)">
   <path d="m-116.56 83.964 16.799 35.579-16.799 35.579-16.799-35.579z" fill="#0010ff"/>
   <path d="m-116.56 83.964 16.799 35.579-16.799 35.579-16.799-35.579z" fill="url(#e)"/>
   <path d="m-116.56 83.964 16.799 35.579-16.799 35.579-16.799-35.579z" fill="url(#d)"/>
   <path d="m-116.56 83.964 16.799 35.579-16.799 35.579c-17.765-51.977-0.29532-32.654 0-71.157z" fill="url(#c)"/>
  </g>
  <g transform="matrix(.5725 0 0 .5725 4.8597 48.048)">
   <path d="m-116.56 83.964 16.799 35.579-16.799 35.579-16.799-35.579z" fill="#0010ff"/>
   <path d="m-116.56 83.964 16.799 35.579-16.799 35.579-16.799-35.579z" fill="url(#e)"/>
   <path d="m-116.56 83.964 16.799 35.579-16.799 35.579-16.799-35.579z" fill="url(#d)"/>
   <path d="m-116.56 83.964 16.799 35.579-16.799 35.579c-17.765-51.977-0.29532-32.654 0-71.157z" fill="url(#c)"/>
  </g>
 </g>
 <path d="m153.91 233.59c-26.43 13.488-31.201 17.401-44.531 33.594 9.1853 43.187 32.842 41.843 53.125 83.594" fill="none" stroke="#000" stroke-width="2"/>
 <path transform="matrix(.77111 -.6367 .6367 .77111 -187.66 182.58)" d="m169.53 358.2a6.6406 12.891 0 1 1 -13.281 0 6.6406 12.891 0 1 1 13.281 0z" fill="#fff302" stroke="#000" stroke-width="2"/>
 <path d="m264.06 238.28c26.43 13.488 31.201 17.401 44.531 33.594-9.1853 43.187-32.842 41.843-53.125 83.594" fill="none" stroke="#000" stroke-width="2"/>
 <path transform="matrix(-.77111 -.6367 -.6367 .77111 607.19 184.14)" d="m169.53 358.2a6.6406 12.891 0 1 1 -13.281 0 6.6406 12.891 0 1 1 13.281 0z" fill="#fff302" stroke="#000" stroke-width="2"/>
</svg>
